# xmcd
# 
# Track frame offsets:
#     150
#     11280
#     26555
#     43750
#     56532
#     87195
#     101055
#     117422
#     137805
#     163502
#     172772
#     190902
#     212177
#     224670
#     237637
#     252177
#     271965
# 
# Disc length: 3849
# 
# Revision: 2
# Processed by: cddbd v1.5.2PL0 Copyright (c) Steve Scherf et al.
# Submitted via: fre:ac v1.0.17
# 
DISCID=f20f0711
DTITLE=Various Artist - Antonio Carlos Jobim
DYEAR=0
DGENRE=Bossa Nova
TTITLE0=Various Artist - Luiza
TTITLE1=Various Artist - Sem Você
TTITLE2=Various Artist - Imagina
TTITLE3=Various Artist - Eu Sei Que Vou Te Amar
TTITLE4=Various Artist - Chovendo na Roseira
TTITLE5=Various Artist - Samba de Uma Nota Só
TTITLE6=Various Artist - Samba do Avião
TTITLE7=Various Artist - Amor Em Paz
TTITLE8=Various Artist - Dindi
TTITLE9=Various Artist - Wave
TTITLE10=Various Artist - Canta, Canta Mais
TTITLE11=Various Artist - Pois É
TTITLE12=Various Artist - Solidão
TTITLE13=Various Artist - Gabriela
TTITLE14=Various Artist - Oficina
TTITLE15=Various Artist - Se É Por Falta de Adeus
TTITLE16=Various Artist - Ligia
EXTD=Disco 05 - Organizado por Almir Chediak
EXTT0=
EXTT1=
EXTT2=
EXTT3=
EXTT4=
EXTT5=
EXTT6=
EXTT7=
EXTT8=
EXTT9=
EXTT10=
EXTT11=
EXTT12=
EXTT13=
EXTT14=
EXTT15=
EXTT16=
PLAYORDER=
